<mxfile host="app.diagrams.net" agent="Mozilla/5.0 (Macintosh; Intel Mac OS X 10_15_7) AppleWebKit/537.36 (KHTML, like Gecko) Chrome/138.0.0.0 Safari/537.36" version="28.0.7">
  <diagram id="C5RBs43oDa-KdzZeNtuy" name="Page-1">
    <mxGraphModel dx="1818" dy="689" grid="0" gridSize="10" guides="1" tooltips="1" connect="1" arrows="0" fold="1" page="0" pageScale="1" pageWidth="827" pageHeight="1169" math="0" shadow="0">
      <root>
        <mxCell id="WIyWlLk6GJQsqaUBKTNV-0" />
        <mxCell id="WIyWlLk6GJQsqaUBKTNV-1" parent="WIyWlLk6GJQsqaUBKTNV-0" />
        <mxCell id="9JNk9C_VZ7fs6iSy1HpL-10" value="BaseComponent&lt;T extends HTMLElement&gt;" style="swimlane;fontStyle=3;align=center;verticalAlign=top;childLayout=stackLayout;horizontal=1;startSize=26;horizontalStack=0;resizeParent=1;resizeLast=0;collapsible=1;marginBottom=0;rounded=0;shadow=1;strokeWidth=1;" parent="WIyWlLk6GJQsqaUBKTNV-1" vertex="1">
          <mxGeometry x="140" y="481" width="370" height="177" as="geometry">
            <mxRectangle x="230" y="140" width="160" height="26" as="alternateBounds" />
          </mxGeometry>
        </mxCell>
        <mxCell id="9JNk9C_VZ7fs6iSy1HpL-11" value="+ element: T" style="text;align=left;verticalAlign=top;spacingLeft=4;spacingRight=4;overflow=hidden;rotatable=0;points=[[0,0.5],[1,0.5]];portConstraint=eastwest;shadow=1;" parent="9JNk9C_VZ7fs6iSy1HpL-10" vertex="1">
          <mxGeometry y="26" width="370" height="26" as="geometry" />
        </mxCell>
        <mxCell id="9JNk9C_VZ7fs6iSy1HpL-14" value="" style="line;html=1;strokeWidth=1;align=left;verticalAlign=middle;spacingTop=-1;spacingLeft=3;spacingRight=3;rotatable=0;labelPosition=right;points=[];portConstraint=eastwest;shadow=1;" parent="9JNk9C_VZ7fs6iSy1HpL-10" vertex="1">
          <mxGeometry y="52" width="370" height="8" as="geometry" />
        </mxCell>
        <mxCell id="9JNk9C_VZ7fs6iSy1HpL-15" value="attachTo(parent: HTMLElement, position?: InsertPosition): void" style="text;align=left;verticalAlign=top;spacingLeft=4;spacingRight=4;overflow=hidden;rotatable=0;points=[[0,0.5],[1,0.5]];portConstraint=eastwest;shadow=1;" parent="9JNk9C_VZ7fs6iSy1HpL-10" vertex="1">
          <mxGeometry y="60" width="370" height="26" as="geometry" />
        </mxCell>
        <mxCell id="9JNk9C_VZ7fs6iSy1HpL-16" value="removeFrom(parent: HTMLElement): void" style="text;align=left;verticalAlign=top;spacingLeft=4;spacingRight=4;overflow=hidden;rotatable=0;points=[[0,0.5],[1,0.5]];portConstraint=eastwest;shadow=1;" parent="9JNk9C_VZ7fs6iSy1HpL-10" vertex="1">
          <mxGeometry y="86" width="370" height="26" as="geometry" />
        </mxCell>
        <mxCell id="pVUZxIeJl8MHuYW2H4T0-14" value="attach(parent: HTMLElement, position?: InsertPosition): void" style="text;align=left;verticalAlign=top;spacingLeft=4;spacingRight=4;overflow=hidden;rotatable=0;points=[[0,0.5],[1,0.5]];portConstraint=eastwest;shadow=1;" parent="9JNk9C_VZ7fs6iSy1HpL-10" vertex="1">
          <mxGeometry y="112" width="370" height="26" as="geometry" />
        </mxCell>
        <mxCell id="pVUZxIeJl8MHuYW2H4T0-21" value="registerEventListener&lt;K extends keyof HTMLElementEventMap&gt;&#xa;(type: K, listener: (this: HTMLElement, ev: HTMLElementEventMap[K]) =&gt; any): void" style="text;align=left;verticalAlign=top;spacingLeft=4;spacingRight=4;overflow=hidden;rotatable=0;points=[[0,0.5],[1,0.5]];portConstraint=eastwest;shadow=1;" parent="9JNk9C_VZ7fs6iSy1HpL-10" vertex="1">
          <mxGeometry y="138" width="370" height="39" as="geometry" />
        </mxCell>
        <mxCell id="9JNk9C_VZ7fs6iSy1HpL-17" value="" style="endArrow=block;endSize=10;endFill=0;shadow=1;strokeWidth=1;rounded=0;curved=0;edgeStyle=elbowEdgeStyle;elbow=vertical;entryX=0.514;entryY=1.01;entryDx=0;entryDy=0;entryPerimeter=0;exitX=0.478;exitY=0.018;exitDx=0;exitDy=0;exitPerimeter=0;dashed=1;" parent="WIyWlLk6GJQsqaUBKTNV-1" source="9JNk9C_VZ7fs6iSy1HpL-10" target="pVUZxIeJl8MHuYW2H4T0-13" edge="1">
          <mxGeometry width="160" relative="1" as="geometry">
            <mxPoint x="460" y="492" as="sourcePoint" />
            <mxPoint x="316.1199999999999" y="501.9979999999998" as="targetPoint" />
          </mxGeometry>
        </mxCell>
        <mxCell id="9JNk9C_VZ7fs6iSy1HpL-18" value="&lt;b&gt;ImageComponent&lt;/b&gt;" style="swimlane;fontStyle=0;childLayout=stackLayout;horizontal=1;startSize=26;fillColor=none;horizontalStack=0;resizeParent=1;resizeParentMax=0;resizeLast=0;collapsible=1;marginBottom=0;whiteSpace=wrap;html=1;shadow=1;" parent="WIyWlLk6GJQsqaUBKTNV-1" vertex="1">
          <mxGeometry x="10" y="750" width="140" height="52" as="geometry" />
        </mxCell>
        <mxCell id="9JNk9C_VZ7fs6iSy1HpL-19" value="-" style="text;strokeColor=none;fillColor=none;align=left;verticalAlign=top;spacingLeft=4;spacingRight=4;overflow=hidden;rotatable=0;points=[[0,0.5],[1,0.5]];portConstraint=eastwest;whiteSpace=wrap;html=1;shadow=1;" parent="9JNk9C_VZ7fs6iSy1HpL-18" vertex="1">
          <mxGeometry y="26" width="140" height="26" as="geometry" />
        </mxCell>
        <mxCell id="9JNk9C_VZ7fs6iSy1HpL-22" value="&lt;b&gt;NoteComponent&lt;/b&gt;" style="swimlane;fontStyle=0;childLayout=stackLayout;horizontal=1;startSize=26;fillColor=none;horizontalStack=0;resizeParent=1;resizeParentMax=0;resizeLast=0;collapsible=1;marginBottom=0;whiteSpace=wrap;html=1;shadow=1;" parent="WIyWlLk6GJQsqaUBKTNV-1" vertex="1">
          <mxGeometry x="170" y="750" width="140" height="52" as="geometry" />
        </mxCell>
        <mxCell id="9JNk9C_VZ7fs6iSy1HpL-23" value="-" style="text;strokeColor=none;fillColor=none;align=left;verticalAlign=top;spacingLeft=4;spacingRight=4;overflow=hidden;rotatable=0;points=[[0,0.5],[1,0.5]];portConstraint=eastwest;whiteSpace=wrap;html=1;shadow=1;" parent="9JNk9C_VZ7fs6iSy1HpL-22" vertex="1">
          <mxGeometry y="26" width="140" height="26" as="geometry" />
        </mxCell>
        <mxCell id="9JNk9C_VZ7fs6iSy1HpL-24" value="&lt;b&gt;TodoComponent&lt;/b&gt;" style="swimlane;fontStyle=0;childLayout=stackLayout;horizontal=1;startSize=26;fillColor=none;horizontalStack=0;resizeParent=1;resizeParentMax=0;resizeLast=0;collapsible=1;marginBottom=0;whiteSpace=wrap;html=1;shadow=1;" parent="WIyWlLk6GJQsqaUBKTNV-1" vertex="1">
          <mxGeometry x="330" y="750" width="140" height="52" as="geometry" />
        </mxCell>
        <mxCell id="9JNk9C_VZ7fs6iSy1HpL-25" value="-" style="text;strokeColor=none;fillColor=none;align=left;verticalAlign=top;spacingLeft=4;spacingRight=4;overflow=hidden;rotatable=0;points=[[0,0.5],[1,0.5]];portConstraint=eastwest;whiteSpace=wrap;html=1;shadow=1;" parent="9JNk9C_VZ7fs6iSy1HpL-24" vertex="1">
          <mxGeometry y="26" width="140" height="26" as="geometry" />
        </mxCell>
        <mxCell id="9JNk9C_VZ7fs6iSy1HpL-26" value="&lt;b&gt;VideoComponent&lt;/b&gt;" style="swimlane;fontStyle=0;childLayout=stackLayout;horizontal=1;startSize=26;fillColor=none;horizontalStack=0;resizeParent=1;resizeParentMax=0;resizeLast=0;collapsible=1;marginBottom=0;whiteSpace=wrap;html=1;shadow=1;" parent="WIyWlLk6GJQsqaUBKTNV-1" vertex="1">
          <mxGeometry x="490" y="750" width="250" height="52" as="geometry" />
        </mxCell>
        <mxCell id="9JNk9C_VZ7fs6iSy1HpL-27" value="convertToEmbeddedURL(url: string): string" style="text;strokeColor=none;fillColor=none;align=left;verticalAlign=top;spacingLeft=4;spacingRight=4;overflow=hidden;rotatable=0;points=[[0,0.5],[1,0.5]];portConstraint=eastwest;whiteSpace=wrap;html=1;shadow=1;" parent="9JNk9C_VZ7fs6iSy1HpL-26" vertex="1">
          <mxGeometry y="26" width="250" height="26" as="geometry" />
        </mxCell>
        <mxCell id="9JNk9C_VZ7fs6iSy1HpL-28" value="" style="endArrow=block;endSize=10;endFill=0;shadow=1;strokeWidth=1;rounded=0;curved=0;edgeStyle=elbowEdgeStyle;elbow=vertical;exitX=0.5;exitY=0;exitDx=0;exitDy=0;" parent="WIyWlLk6GJQsqaUBKTNV-1" source="9JNk9C_VZ7fs6iSy1HpL-26" edge="1">
          <mxGeometry width="160" relative="1" as="geometry">
            <mxPoint x="570" y="422" as="sourcePoint" />
            <mxPoint x="316" y="657" as="targetPoint" />
          </mxGeometry>
        </mxCell>
        <mxCell id="9JNk9C_VZ7fs6iSy1HpL-29" value="" style="endArrow=block;endSize=10;endFill=0;shadow=1;strokeWidth=1;rounded=0;curved=0;edgeStyle=elbowEdgeStyle;elbow=vertical;exitX=0.5;exitY=0;exitDx=0;exitDy=0;" parent="WIyWlLk6GJQsqaUBKTNV-1" source="9JNk9C_VZ7fs6iSy1HpL-24" edge="1">
          <mxGeometry width="160" relative="1" as="geometry">
            <mxPoint x="885" y="780" as="sourcePoint" />
            <mxPoint x="316" y="657" as="targetPoint" />
          </mxGeometry>
        </mxCell>
        <mxCell id="9JNk9C_VZ7fs6iSy1HpL-31" value="" style="endArrow=block;endSize=10;endFill=0;shadow=1;strokeWidth=1;rounded=0;curved=0;edgeStyle=elbowEdgeStyle;elbow=vertical;" parent="WIyWlLk6GJQsqaUBKTNV-1" edge="1">
          <mxGeometry width="160" relative="1" as="geometry">
            <mxPoint x="239" y="750" as="sourcePoint" />
            <mxPoint x="316" y="656" as="targetPoint" />
          </mxGeometry>
        </mxCell>
        <mxCell id="9JNk9C_VZ7fs6iSy1HpL-32" value="" style="endArrow=block;endSize=10;endFill=0;shadow=1;strokeWidth=1;rounded=0;curved=0;edgeStyle=elbowEdgeStyle;elbow=vertical;exitX=0.5;exitY=0;exitDx=0;exitDy=0;" parent="WIyWlLk6GJQsqaUBKTNV-1" source="9JNk9C_VZ7fs6iSy1HpL-18" edge="1">
          <mxGeometry width="160" relative="1" as="geometry">
            <mxPoint x="24" y="750" as="sourcePoint" />
            <mxPoint x="316" y="657" as="targetPoint" />
          </mxGeometry>
        </mxCell>
        <mxCell id="9JNk9C_VZ7fs6iSy1HpL-33" value="&lt;b&gt;SectionContainer&lt;/b&gt;" style="swimlane;fontStyle=0;childLayout=stackLayout;horizontal=1;startSize=26;fillColor=#dae8fc;horizontalStack=0;resizeParent=1;resizeParentMax=0;resizeLast=0;collapsible=1;marginBottom=0;whiteSpace=wrap;html=1;strokeColor=#6c8ebf;shadow=1;" parent="WIyWlLk6GJQsqaUBKTNV-1" vertex="1">
          <mxGeometry x="854" y="492" width="466" height="115" as="geometry" />
        </mxCell>
        <mxCell id="9JNk9C_VZ7fs6iSy1HpL-34" value="setOnCloseListener(listener: OnCloseListener): void&lt;br&gt;&lt;span style=&quot;text-wrap-mode: nowrap;&quot;&gt;setOnDragStateListener(listener: OnDragStateListener&amp;lt;PageItemComponent&amp;gt;): void&lt;/span&gt;&lt;div&gt;&lt;span style=&quot;text-wrap-mode: nowrap;&quot;&gt;muteChildern(state: &#39;mute&#39; | &#39;unmute&#39;): void&lt;/span&gt;&lt;/div&gt;&lt;div&gt;&lt;span style=&quot;text-wrap-mode: nowrap;&quot;&gt;onDropped(): void&lt;/span&gt;&lt;/div&gt;&lt;div&gt;&lt;span style=&quot;text-wrap-mode: nowrap;&quot;&gt;getBoundingRect(): DOMRect&amp;nbsp; ( drap and drop 시 요소의 y 값 구하기 위해)&lt;/span&gt;&lt;/div&gt;" style="text;strokeColor=none;fillColor=none;align=left;verticalAlign=top;spacingLeft=4;spacingRight=4;overflow=hidden;rotatable=0;points=[[0,0.5],[1,0.5]];portConstraint=eastwest;whiteSpace=wrap;html=1;shadow=1;" parent="9JNk9C_VZ7fs6iSy1HpL-33" vertex="1">
          <mxGeometry y="26" width="466" height="89" as="geometry" />
        </mxCell>
        <mxCell id="9JNk9C_VZ7fs6iSy1HpL-36" value="PageItemComponent" style="swimlane;fontStyle=3;align=center;verticalAlign=top;childLayout=stackLayout;horizontal=1;startSize=26;horizontalStack=0;resizeParent=1;resizeLast=0;collapsible=1;marginBottom=0;rounded=0;shadow=1;strokeWidth=1;" parent="WIyWlLk6GJQsqaUBKTNV-1" vertex="1">
          <mxGeometry x="1050" y="750" width="452" height="343" as="geometry">
            <mxRectangle x="230" y="140" width="160" height="26" as="alternateBounds" />
          </mxGeometry>
        </mxCell>
        <mxCell id="9JNk9C_VZ7fs6iSy1HpL-37" value="+ closeListener?: OnCloseListener (타입 정의)&#xa;+ dragStateListener?: OnDragStateListener&lt;PageItemComponent&gt; (타입 정의)" style="text;align=left;verticalAlign=top;spacingLeft=4;spacingRight=4;overflow=hidden;rotatable=0;points=[[0,0.5],[1,0.5]];portConstraint=eastwest;shadow=1;" parent="9JNk9C_VZ7fs6iSy1HpL-36" vertex="1">
          <mxGeometry y="26" width="452" height="43" as="geometry" />
        </mxCell>
        <mxCell id="9JNk9C_VZ7fs6iSy1HpL-38" value="" style="line;html=1;strokeWidth=1;align=left;verticalAlign=middle;spacingTop=-1;spacingLeft=3;spacingRight=3;rotatable=0;labelPosition=right;points=[];portConstraint=eastwest;shadow=1;" parent="9JNk9C_VZ7fs6iSy1HpL-36" vertex="1">
          <mxGeometry y="69" width="452" height="8" as="geometry" />
        </mxCell>
        <mxCell id="9JNk9C_VZ7fs6iSy1HpL-39" value="addChild(child: Component)" style="text;align=left;verticalAlign=top;spacingLeft=4;spacingRight=4;overflow=hidden;rotatable=0;points=[[0,0.5],[1,0.5]];portConstraint=eastwest;shadow=1;" parent="9JNk9C_VZ7fs6iSy1HpL-36" vertex="1">
          <mxGeometry y="77" width="452" height="26" as="geometry" />
        </mxCell>
        <mxCell id="9JNk9C_VZ7fs6iSy1HpL-40" value="setOnCloseListener(listener: OnCloseListener)" style="text;align=left;verticalAlign=top;spacingLeft=4;spacingRight=4;overflow=hidden;rotatable=0;points=[[0,0.5],[1,0.5]];portConstraint=eastwest;shadow=1;" parent="9JNk9C_VZ7fs6iSy1HpL-36" vertex="1">
          <mxGeometry y="103" width="452" height="25" as="geometry" />
        </mxCell>
        <mxCell id="pVUZxIeJl8MHuYW2H4T0-35" value="onDragStart(event: DragEvent): void" style="text;align=left;verticalAlign=top;spacingLeft=4;spacingRight=4;overflow=hidden;rotatable=0;points=[[0,0.5],[1,0.5]];portConstraint=eastwest;shadow=1;" parent="9JNk9C_VZ7fs6iSy1HpL-36" vertex="1">
          <mxGeometry y="128" width="452" height="26" as="geometry" />
        </mxCell>
        <mxCell id="pVUZxIeJl8MHuYW2H4T0-34" value="onDragEnd(event: DragEvent): void" style="text;align=left;verticalAlign=top;spacingLeft=4;spacingRight=4;overflow=hidden;rotatable=0;points=[[0,0.5],[1,0.5]];portConstraint=eastwest;shadow=1;" parent="9JNk9C_VZ7fs6iSy1HpL-36" vertex="1">
          <mxGeometry y="154" width="452" height="26" as="geometry" />
        </mxCell>
        <mxCell id="pVUZxIeJl8MHuYW2H4T0-37" value="onDragEnter(event: DragEvent): void" style="text;align=left;verticalAlign=top;spacingLeft=4;spacingRight=4;overflow=hidden;rotatable=0;points=[[0,0.5],[1,0.5]];portConstraint=eastwest;shadow=1;" parent="9JNk9C_VZ7fs6iSy1HpL-36" vertex="1">
          <mxGeometry y="180" width="452" height="26" as="geometry" />
        </mxCell>
        <mxCell id="pVUZxIeJl8MHuYW2H4T0-36" value="onDragLeave(event: DragEvent): void" style="text;align=left;verticalAlign=top;spacingLeft=4;spacingRight=4;overflow=hidden;rotatable=0;points=[[0,0.5],[1,0.5]];portConstraint=eastwest;shadow=1;" parent="9JNk9C_VZ7fs6iSy1HpL-36" vertex="1">
          <mxGeometry y="206" width="452" height="26" as="geometry" />
        </mxCell>
        <mxCell id="pVUZxIeJl8MHuYW2H4T0-38" value="setOnDragStateListener(listener: OnDragStateListener&lt;PageItemComponent&gt;)" style="text;align=left;verticalAlign=top;spacingLeft=4;spacingRight=4;overflow=hidden;rotatable=0;points=[[0,0.5],[1,0.5]];portConstraint=eastwest;shadow=1;" parent="9JNk9C_VZ7fs6iSy1HpL-36" vertex="1">
          <mxGeometry y="232" width="452" height="28" as="geometry" />
        </mxCell>
        <mxCell id="tHrwXdwBzoUL8-mCVOlk-0" value="muteChildern(state: &#39;mute&#39; | &#39;unmute&#39;): void" style="text;align=left;verticalAlign=top;spacingLeft=4;spacingRight=4;overflow=hidden;rotatable=0;points=[[0,0.5],[1,0.5]];portConstraint=eastwest;shadow=1;" vertex="1" parent="9JNk9C_VZ7fs6iSy1HpL-36">
          <mxGeometry y="260" width="452" height="26" as="geometry" />
        </mxCell>
        <mxCell id="tHrwXdwBzoUL8-mCVOlk-2" value="onDropped(): void" style="text;align=left;verticalAlign=top;spacingLeft=4;spacingRight=4;overflow=hidden;rotatable=0;points=[[0,0.5],[1,0.5]];portConstraint=eastwest;shadow=1;" vertex="1" parent="9JNk9C_VZ7fs6iSy1HpL-36">
          <mxGeometry y="286" width="452" height="26" as="geometry" />
        </mxCell>
        <mxCell id="tHrwXdwBzoUL8-mCVOlk-1" value="getBoundingRect(): DOMRect " style="text;align=left;verticalAlign=top;spacingLeft=4;spacingRight=4;overflow=hidden;rotatable=0;points=[[0,0.5],[1,0.5]];portConstraint=eastwest;shadow=1;" vertex="1" parent="9JNk9C_VZ7fs6iSy1HpL-36">
          <mxGeometry y="312" width="452" height="26" as="geometry" />
        </mxCell>
        <mxCell id="9JNk9C_VZ7fs6iSy1HpL-41" value="" style="endArrow=block;endSize=10;endFill=0;shadow=1;strokeWidth=1;rounded=0;curved=0;edgeStyle=elbowEdgeStyle;elbow=vertical;entryX=0.492;entryY=1.115;entryDx=0;entryDy=0;entryPerimeter=0;exitX=0.5;exitY=0;exitDx=0;exitDy=0;dashed=1;" parent="WIyWlLk6GJQsqaUBKTNV-1" source="9JNk9C_VZ7fs6iSy1HpL-36" target="9JNk9C_VZ7fs6iSy1HpL-34" edge="1">
          <mxGeometry width="160" relative="1" as="geometry">
            <mxPoint x="351" y="615" as="sourcePoint" />
            <mxPoint x="350" y="550" as="targetPoint" />
          </mxGeometry>
        </mxCell>
        <mxCell id="9JNk9C_VZ7fs6iSy1HpL-47" value="&lt;b&gt;PageComponent&lt;/b&gt;" style="swimlane;fontStyle=0;childLayout=stackLayout;horizontal=1;startSize=26;fillColor=none;horizontalStack=0;resizeParent=1;resizeParentMax=0;resizeLast=0;collapsible=1;marginBottom=0;whiteSpace=wrap;html=1;shadow=1;" parent="WIyWlLk6GJQsqaUBKTNV-1" vertex="1">
          <mxGeometry x="780" y="750" width="250" height="85" as="geometry" />
        </mxCell>
        <mxCell id="9JNk9C_VZ7fs6iSy1HpL-48" value="&lt;span style=&quot;text-wrap-mode: nowrap;&quot;&gt;addChild(child: Component)&lt;br&gt;&lt;/span&gt;onDragOver(event: DragEvent): void&lt;br&gt;onDrop(event: DragEvent): void&lt;br&gt;&lt;span style=&quot;text-wrap-mode: nowrap;&quot;&gt;&lt;/span&gt;" style="text;strokeColor=none;fillColor=none;align=left;verticalAlign=top;spacingLeft=4;spacingRight=4;overflow=hidden;rotatable=0;points=[[0,0.5],[1,0.5]];portConstraint=eastwest;whiteSpace=wrap;html=1;shadow=1;" parent="9JNk9C_VZ7fs6iSy1HpL-47" vertex="1">
          <mxGeometry y="26" width="250" height="59" as="geometry" />
        </mxCell>
        <mxCell id="9JNk9C_VZ7fs6iSy1HpL-54" value="" style="endArrow=block;endSize=10;endFill=0;shadow=1;strokeWidth=1;rounded=0;elbow=vertical;exitX=0.5;exitY=0;exitDx=0;exitDy=0;" parent="WIyWlLk6GJQsqaUBKTNV-1" source="9JNk9C_VZ7fs6iSy1HpL-47" edge="1">
          <mxGeometry width="160" relative="1" as="geometry">
            <mxPoint x="866" y="712" as="sourcePoint" />
            <mxPoint x="513" y="596" as="targetPoint" />
          </mxGeometry>
        </mxCell>
        <mxCell id="9JNk9C_VZ7fs6iSy1HpL-55" value="" style="endArrow=block;endSize=10;endFill=0;shadow=1;strokeWidth=1;rounded=0;elbow=vertical;" parent="WIyWlLk6GJQsqaUBKTNV-1" edge="1">
          <mxGeometry width="160" relative="1" as="geometry">
            <mxPoint x="1276" y="748" as="sourcePoint" />
            <mxPoint x="507" y="593" as="targetPoint" />
          </mxGeometry>
        </mxCell>
        <mxCell id="jFVxLSKJPjvxt1Orrbv5-0" value="&lt;b&gt;Composable&lt;/b&gt;" style="swimlane;fontStyle=0;childLayout=stackLayout;horizontal=1;startSize=26;fillColor=#dae8fc;horizontalStack=0;resizeParent=1;resizeParentMax=0;resizeLast=0;collapsible=1;marginBottom=0;whiteSpace=wrap;html=1;strokeColor=#6c8ebf;shadow=1;" parent="WIyWlLk6GJQsqaUBKTNV-1" vertex="1">
          <mxGeometry x="947" y="228" width="240" height="52" as="geometry" />
        </mxCell>
        <mxCell id="jFVxLSKJPjvxt1Orrbv5-1" value="addChild(child: Component): void" style="text;strokeColor=none;fillColor=none;align=left;verticalAlign=top;spacingLeft=4;spacingRight=4;overflow=hidden;rotatable=0;points=[[0,0.5],[1,0.5]];portConstraint=eastwest;whiteSpace=wrap;html=1;shadow=1;" parent="jFVxLSKJPjvxt1Orrbv5-0" vertex="1">
          <mxGeometry y="26" width="240" height="26" as="geometry" />
        </mxCell>
        <mxCell id="jFVxLSKJPjvxt1Orrbv5-2" value="" style="endArrow=block;endSize=10;endFill=0;shadow=1;strokeWidth=1;rounded=0;elbow=vertical;exitX=0.5;exitY=0;exitDx=0;exitDy=0;entryX=0.483;entryY=1;entryDx=0;entryDy=0;entryPerimeter=0;" parent="WIyWlLk6GJQsqaUBKTNV-1" source="9JNk9C_VZ7fs6iSy1HpL-33" target="jFVxLSKJPjvxt1Orrbv5-1" edge="1">
          <mxGeometry width="160" relative="1" as="geometry">
            <mxPoint x="1905" y="789" as="sourcePoint" />
            <mxPoint x="1190" y="690" as="targetPoint" />
          </mxGeometry>
        </mxCell>
        <mxCell id="jFVxLSKJPjvxt1Orrbv5-3" value="" style="endArrow=block;endSize=10;endFill=0;shadow=1;strokeWidth=1;rounded=0;elbow=vertical;exitX=0.5;exitY=0;exitDx=0;exitDy=0;entryX=1;entryY=0.5;entryDx=0;entryDy=0;" parent="WIyWlLk6GJQsqaUBKTNV-1" source="9JNk9C_VZ7fs6iSy1HpL-33" target="pVUZxIeJl8MHuYW2H4T0-11" edge="1">
          <mxGeometry width="160" relative="1" as="geometry">
            <mxPoint x="1465" y="641" as="sourcePoint" />
            <mxPoint x="510.00000000000045" y="465.0000000000002" as="targetPoint" />
          </mxGeometry>
        </mxCell>
        <mxCell id="jFVxLSKJPjvxt1Orrbv5-4" value="InputDialog" style="swimlane;fontStyle=3;align=center;verticalAlign=top;childLayout=stackLayout;horizontal=1;startSize=26;horizontalStack=0;resizeParent=1;resizeLast=0;collapsible=1;marginBottom=0;rounded=0;shadow=1;strokeWidth=1;" parent="WIyWlLk6GJQsqaUBKTNV-1" vertex="1">
          <mxGeometry x="1594" y="761" width="370" height="164" as="geometry">
            <mxRectangle x="230" y="140" width="160" height="26" as="alternateBounds" />
          </mxGeometry>
        </mxCell>
        <mxCell id="jFVxLSKJPjvxt1Orrbv5-5" value="+ closeListener?: OnCloseListener (타입 정의)" style="text;align=left;verticalAlign=top;spacingLeft=4;spacingRight=4;overflow=hidden;rotatable=0;points=[[0,0.5],[1,0.5]];portConstraint=eastwest;shadow=1;" parent="jFVxLSKJPjvxt1Orrbv5-4" vertex="1">
          <mxGeometry y="26" width="370" height="26" as="geometry" />
        </mxCell>
        <mxCell id="jFVxLSKJPjvxt1Orrbv5-9" value="+ submitListener?: OnSubmitListener (타입 정의)" style="text;align=left;verticalAlign=top;spacingLeft=4;spacingRight=4;overflow=hidden;rotatable=0;points=[[0,0.5],[1,0.5]];portConstraint=eastwest;shadow=1;" parent="jFVxLSKJPjvxt1Orrbv5-4" vertex="1">
          <mxGeometry y="52" width="370" height="26" as="geometry" />
        </mxCell>
        <mxCell id="jFVxLSKJPjvxt1Orrbv5-6" value="" style="line;html=1;strokeWidth=1;align=left;verticalAlign=middle;spacingTop=-1;spacingLeft=3;spacingRight=3;rotatable=0;labelPosition=right;points=[];portConstraint=eastwest;shadow=1;" parent="jFVxLSKJPjvxt1Orrbv5-4" vertex="1">
          <mxGeometry y="78" width="370" height="8" as="geometry" />
        </mxCell>
        <mxCell id="jFVxLSKJPjvxt1Orrbv5-7" value="addChild(child: Component)" style="text;align=left;verticalAlign=top;spacingLeft=4;spacingRight=4;overflow=hidden;rotatable=0;points=[[0,0.5],[1,0.5]];portConstraint=eastwest;shadow=1;" parent="jFVxLSKJPjvxt1Orrbv5-4" vertex="1">
          <mxGeometry y="86" width="370" height="26" as="geometry" />
        </mxCell>
        <mxCell id="jFVxLSKJPjvxt1Orrbv5-8" value="setOnCloseListener(listener: OnCloseListener)" style="text;align=left;verticalAlign=top;spacingLeft=4;spacingRight=4;overflow=hidden;rotatable=0;points=[[0,0.5],[1,0.5]];portConstraint=eastwest;shadow=1;" parent="jFVxLSKJPjvxt1Orrbv5-4" vertex="1">
          <mxGeometry y="112" width="370" height="26" as="geometry" />
        </mxCell>
        <mxCell id="jFVxLSKJPjvxt1Orrbv5-15" value="setOnSubmitListener(listener: OnSubmitListener)" style="text;align=left;verticalAlign=top;spacingLeft=4;spacingRight=4;overflow=hidden;rotatable=0;points=[[0,0.5],[1,0.5]];portConstraint=eastwest;shadow=1;" parent="jFVxLSKJPjvxt1Orrbv5-4" vertex="1">
          <mxGeometry y="138" width="370" height="26" as="geometry" />
        </mxCell>
        <mxCell id="jFVxLSKJPjvxt1Orrbv5-10" value="" style="endArrow=block;endSize=10;endFill=0;shadow=1;strokeWidth=1;rounded=0;elbow=vertical;exitX=0.5;exitY=0;exitDx=0;exitDy=0;" parent="WIyWlLk6GJQsqaUBKTNV-1" source="jFVxLSKJPjvxt1Orrbv5-4" edge="1">
          <mxGeometry width="160" relative="1" as="geometry">
            <mxPoint x="1421.5" y="729" as="sourcePoint" />
            <mxPoint x="509" y="589" as="targetPoint" />
          </mxGeometry>
        </mxCell>
        <mxCell id="jFVxLSKJPjvxt1Orrbv5-12" value="" style="endArrow=block;dashed=1;endFill=0;endSize=12;html=1;rounded=0;entryX=0;entryY=0.5;entryDx=0;entryDy=0;exitX=0.5;exitY=0;exitDx=0;exitDy=0;edgeStyle=orthogonalEdgeStyle;shadow=1;" parent="WIyWlLk6GJQsqaUBKTNV-1" source="9JNk9C_VZ7fs6iSy1HpL-47" target="jFVxLSKJPjvxt1Orrbv5-1" edge="1">
          <mxGeometry width="160" relative="1" as="geometry">
            <mxPoint x="510" y="660" as="sourcePoint" />
            <mxPoint x="670" y="660" as="targetPoint" />
          </mxGeometry>
        </mxCell>
        <mxCell id="jFVxLSKJPjvxt1Orrbv5-14" value="" style="endArrow=block;dashed=1;endFill=0;endSize=12;html=1;rounded=0;entryX=1;entryY=0.5;entryDx=0;entryDy=0;edgeStyle=orthogonalEdgeStyle;shadow=1;" parent="WIyWlLk6GJQsqaUBKTNV-1" target="jFVxLSKJPjvxt1Orrbv5-1" edge="1">
          <mxGeometry width="160" relative="1" as="geometry">
            <mxPoint x="1779" y="759" as="sourcePoint" />
            <mxPoint x="1390" y="640" as="targetPoint" />
          </mxGeometry>
        </mxCell>
        <mxCell id="2jNvWg0jx0bwiWh0TJPb-2" value="&lt;b&gt;TextSectionInput&lt;/b&gt;" style="swimlane;fontStyle=0;childLayout=stackLayout;horizontal=1;startSize=26;fillColor=none;horizontalStack=0;resizeParent=1;resizeParentMax=0;resizeLast=0;collapsible=1;marginBottom=0;whiteSpace=wrap;html=1;shadow=1;" parent="WIyWlLk6GJQsqaUBKTNV-1" vertex="1">
          <mxGeometry x="-236" y="677" width="140" height="78" as="geometry" />
        </mxCell>
        <mxCell id="2jNvWg0jx0bwiWh0TJPb-3" value="+ title: string&lt;div&gt;&lt;br&gt;&lt;/div&gt;" style="text;strokeColor=none;fillColor=none;align=left;verticalAlign=top;spacingLeft=4;spacingRight=4;overflow=hidden;rotatable=0;points=[[0,0.5],[1,0.5]];portConstraint=eastwest;whiteSpace=wrap;html=1;shadow=1;" parent="2jNvWg0jx0bwiWh0TJPb-2" vertex="1">
          <mxGeometry y="26" width="140" height="26" as="geometry" />
        </mxCell>
        <mxCell id="2jNvWg0jx0bwiWh0TJPb-4" value="+ body: string" style="text;strokeColor=none;fillColor=none;align=left;verticalAlign=top;spacingLeft=4;spacingRight=4;overflow=hidden;rotatable=0;points=[[0,0.5],[1,0.5]];portConstraint=eastwest;whiteSpace=wrap;html=1;shadow=1;" parent="2jNvWg0jx0bwiWh0TJPb-2" vertex="1">
          <mxGeometry y="52" width="140" height="26" as="geometry" />
        </mxCell>
        <mxCell id="2jNvWg0jx0bwiWh0TJPb-6" value="&lt;b&gt;MediaSectionInput&lt;/b&gt;" style="swimlane;fontStyle=0;childLayout=stackLayout;horizontal=1;startSize=26;fillColor=none;horizontalStack=0;resizeParent=1;resizeParentMax=0;resizeLast=0;collapsible=1;marginBottom=0;whiteSpace=wrap;html=1;shadow=1;" parent="WIyWlLk6GJQsqaUBKTNV-1" vertex="1">
          <mxGeometry x="-237" y="539" width="140" height="78" as="geometry" />
        </mxCell>
        <mxCell id="2jNvWg0jx0bwiWh0TJPb-7" value="+ title: string&lt;div&gt;&lt;br&gt;&lt;/div&gt;" style="text;strokeColor=none;fillColor=none;align=left;verticalAlign=top;spacingLeft=4;spacingRight=4;overflow=hidden;rotatable=0;points=[[0,0.5],[1,0.5]];portConstraint=eastwest;whiteSpace=wrap;html=1;shadow=1;" parent="2jNvWg0jx0bwiWh0TJPb-6" vertex="1">
          <mxGeometry y="26" width="140" height="26" as="geometry" />
        </mxCell>
        <mxCell id="2jNvWg0jx0bwiWh0TJPb-8" value="+ url: string" style="text;strokeColor=none;fillColor=none;align=left;verticalAlign=top;spacingLeft=4;spacingRight=4;overflow=hidden;rotatable=0;points=[[0,0.5],[1,0.5]];portConstraint=eastwest;whiteSpace=wrap;html=1;shadow=1;" parent="2jNvWg0jx0bwiWh0TJPb-6" vertex="1">
          <mxGeometry y="52" width="140" height="26" as="geometry" />
        </mxCell>
        <mxCell id="2jNvWg0jx0bwiWh0TJPb-9" value="&lt;b&gt;MediaData&lt;/b&gt;" style="swimlane;fontStyle=0;childLayout=stackLayout;horizontal=1;startSize=26;fillColor=#dae8fc;horizontalStack=0;resizeParent=1;resizeParentMax=0;resizeLast=0;collapsible=1;marginBottom=0;whiteSpace=wrap;html=1;strokeColor=#6c8ebf;shadow=1;" parent="WIyWlLk6GJQsqaUBKTNV-1" vertex="1">
          <mxGeometry x="-453" y="539" width="140" height="78" as="geometry" />
        </mxCell>
        <mxCell id="2jNvWg0jx0bwiWh0TJPb-10" value="+ title: string&lt;div&gt;&lt;br&gt;&lt;/div&gt;" style="text;strokeColor=none;fillColor=none;align=left;verticalAlign=top;spacingLeft=4;spacingRight=4;overflow=hidden;rotatable=0;points=[[0,0.5],[1,0.5]];portConstraint=eastwest;whiteSpace=wrap;html=1;shadow=1;" parent="2jNvWg0jx0bwiWh0TJPb-9" vertex="1">
          <mxGeometry y="26" width="140" height="26" as="geometry" />
        </mxCell>
        <mxCell id="2jNvWg0jx0bwiWh0TJPb-11" value="+ url: string" style="text;strokeColor=none;fillColor=none;align=left;verticalAlign=top;spacingLeft=4;spacingRight=4;overflow=hidden;rotatable=0;points=[[0,0.5],[1,0.5]];portConstraint=eastwest;whiteSpace=wrap;html=1;shadow=1;" parent="2jNvWg0jx0bwiWh0TJPb-9" vertex="1">
          <mxGeometry y="52" width="140" height="26" as="geometry" />
        </mxCell>
        <mxCell id="2jNvWg0jx0bwiWh0TJPb-13" value="&lt;b&gt;TextData&lt;/b&gt;" style="swimlane;fontStyle=0;childLayout=stackLayout;horizontal=1;startSize=26;fillColor=#dae8fc;horizontalStack=0;resizeParent=1;resizeParentMax=0;resizeLast=0;collapsible=1;marginBottom=0;whiteSpace=wrap;html=1;strokeColor=#6c8ebf;shadow=1;" parent="WIyWlLk6GJQsqaUBKTNV-1" vertex="1">
          <mxGeometry x="-451" y="677" width="140" height="78" as="geometry" />
        </mxCell>
        <mxCell id="2jNvWg0jx0bwiWh0TJPb-14" value="+ title: string&lt;div&gt;&lt;br&gt;&lt;/div&gt;" style="text;strokeColor=none;fillColor=none;align=left;verticalAlign=top;spacingLeft=4;spacingRight=4;overflow=hidden;rotatable=0;points=[[0,0.5],[1,0.5]];portConstraint=eastwest;whiteSpace=wrap;html=1;shadow=1;" parent="2jNvWg0jx0bwiWh0TJPb-13" vertex="1">
          <mxGeometry y="26" width="140" height="26" as="geometry" />
        </mxCell>
        <mxCell id="2jNvWg0jx0bwiWh0TJPb-15" value="+ body: string" style="text;strokeColor=none;fillColor=none;align=left;verticalAlign=top;spacingLeft=4;spacingRight=4;overflow=hidden;rotatable=0;points=[[0,0.5],[1,0.5]];portConstraint=eastwest;whiteSpace=wrap;html=1;shadow=1;" parent="2jNvWg0jx0bwiWh0TJPb-13" vertex="1">
          <mxGeometry y="52" width="140" height="26" as="geometry" />
        </mxCell>
        <mxCell id="2jNvWg0jx0bwiWh0TJPb-18" value="" style="endArrow=block;dashed=1;endFill=0;endSize=12;html=1;rounded=0;entryX=0.976;entryY=0.872;entryDx=0;entryDy=0;entryPerimeter=0;shadow=1;" parent="WIyWlLk6GJQsqaUBKTNV-1" target="2jNvWg0jx0bwiWh0TJPb-14" edge="1">
          <mxGeometry width="160" relative="1" as="geometry">
            <mxPoint x="-238" y="726" as="sourcePoint" />
            <mxPoint x="458" y="684" as="targetPoint" />
          </mxGeometry>
        </mxCell>
        <mxCell id="2jNvWg0jx0bwiWh0TJPb-19" value="" style="endArrow=block;dashed=1;endFill=0;endSize=12;html=1;rounded=0;entryX=0.976;entryY=0.872;entryDx=0;entryDy=0;entryPerimeter=0;shadow=1;" parent="WIyWlLk6GJQsqaUBKTNV-1" edge="1">
          <mxGeometry width="160" relative="1" as="geometry">
            <mxPoint x="-241" y="589" as="sourcePoint" />
            <mxPoint x="-317" y="589" as="targetPoint" />
          </mxGeometry>
        </mxCell>
        <mxCell id="2jNvWg0jx0bwiWh0TJPb-20" value="" style="endArrow=block;endSize=10;endFill=0;shadow=1;strokeWidth=1;rounded=0;elbow=vertical;exitX=1;exitY=0;exitDx=0;exitDy=0;entryX=0;entryY=0.5;entryDx=0;entryDy=0;exitPerimeter=0;" parent="WIyWlLk6GJQsqaUBKTNV-1" source="2jNvWg0jx0bwiWh0TJPb-8" target="9JNk9C_VZ7fs6iSy1HpL-16" edge="1">
          <mxGeometry width="160" relative="1" as="geometry">
            <mxPoint x="-377" y="404" as="sourcePoint" />
            <mxPoint x="177" y="525" as="targetPoint" />
          </mxGeometry>
        </mxCell>
        <mxCell id="2jNvWg0jx0bwiWh0TJPb-21" value="" style="endArrow=block;endSize=10;endFill=0;shadow=1;strokeWidth=1;rounded=0;elbow=vertical;exitX=1.002;exitY=-0.128;exitDx=0;exitDy=0;exitPerimeter=0;entryX=0;entryY=0.5;entryDx=0;entryDy=0;" parent="WIyWlLk6GJQsqaUBKTNV-1" source="2jNvWg0jx0bwiWh0TJPb-4" target="9JNk9C_VZ7fs6iSy1HpL-16" edge="1">
          <mxGeometry width="160" relative="1" as="geometry">
            <mxPoint x="126" y="751" as="sourcePoint" />
            <mxPoint x="138" y="666" as="targetPoint" />
          </mxGeometry>
        </mxCell>
        <mxCell id="pVUZxIeJl8MHuYW2H4T0-0" value="&lt;b&gt;Draggable&lt;/b&gt;" style="swimlane;fontStyle=0;childLayout=stackLayout;horizontal=1;startSize=26;fillColor=#dae8fc;horizontalStack=0;resizeParent=1;resizeParentMax=0;resizeLast=0;collapsible=1;marginBottom=0;whiteSpace=wrap;html=1;strokeColor=#6c8ebf;shadow=1;" parent="WIyWlLk6GJQsqaUBKTNV-1" vertex="1">
          <mxGeometry x="1101" y="335" width="300" height="69" as="geometry" />
        </mxCell>
        <mxCell id="pVUZxIeJl8MHuYW2H4T0-1" value="onDragStart(event: DragEvent): void&lt;br&gt;onDragEnd(event: DragEvent): void" style="text;strokeColor=none;fillColor=none;align=left;verticalAlign=top;spacingLeft=4;spacingRight=4;overflow=hidden;rotatable=0;points=[[0,0.5],[1,0.5]];portConstraint=eastwest;whiteSpace=wrap;html=1;shadow=1;" parent="pVUZxIeJl8MHuYW2H4T0-0" vertex="1">
          <mxGeometry y="26" width="300" height="43" as="geometry" />
        </mxCell>
        <mxCell id="pVUZxIeJl8MHuYW2H4T0-8" value="&lt;b&gt;Component&lt;/b&gt;" style="swimlane;fontStyle=0;childLayout=stackLayout;horizontal=1;startSize=26;fillColor=#dae8fc;horizontalStack=0;resizeParent=1;resizeParentMax=0;resizeLast=0;collapsible=1;marginBottom=0;whiteSpace=wrap;html=1;strokeColor=#6c8ebf;shadow=1;" parent="WIyWlLk6GJQsqaUBKTNV-1" vertex="1">
          <mxGeometry x="64" y="230" width="492" height="146" as="geometry" />
        </mxCell>
        <mxCell id="pVUZxIeJl8MHuYW2H4T0-9" value="attachTo(parent: HTMLElement, position?: InsertPosition): void" style="text;strokeColor=none;fillColor=none;align=left;verticalAlign=top;spacingLeft=4;spacingRight=4;overflow=hidden;rotatable=0;points=[[0,0.5],[1,0.5]];portConstraint=eastwest;whiteSpace=wrap;html=1;shadow=1;" parent="pVUZxIeJl8MHuYW2H4T0-8" vertex="1">
          <mxGeometry y="26" width="492" height="26" as="geometry" />
        </mxCell>
        <mxCell id="pVUZxIeJl8MHuYW2H4T0-10" value="removeFrom(parent: HTMLElement): void" style="text;strokeColor=none;fillColor=none;align=left;verticalAlign=top;spacingLeft=4;spacingRight=4;overflow=hidden;rotatable=0;points=[[0,0.5],[1,0.5]];portConstraint=eastwest;whiteSpace=wrap;html=1;shadow=1;" parent="pVUZxIeJl8MHuYW2H4T0-8" vertex="1">
          <mxGeometry y="52" width="492" height="26" as="geometry" />
        </mxCell>
        <mxCell id="pVUZxIeJl8MHuYW2H4T0-11" value="attach(parent: HTMLElement, position?: InsertPosition): void" style="text;strokeColor=none;fillColor=none;align=left;verticalAlign=top;spacingLeft=4;spacingRight=4;overflow=hidden;rotatable=0;points=[[0,0.5],[1,0.5]];portConstraint=eastwest;whiteSpace=wrap;html=1;shadow=1;" parent="pVUZxIeJl8MHuYW2H4T0-8" vertex="1">
          <mxGeometry y="78" width="492" height="25" as="geometry" />
        </mxCell>
        <mxCell id="pVUZxIeJl8MHuYW2H4T0-13" value="registerEventListener&amp;lt;K extends keyof HTMLElementEventMap&amp;gt;&lt;br&gt;(type: K, listener: (this: HTMLElement, ev: HTMLElementEventMap[K]) =&amp;gt; any): void" style="text;strokeColor=none;fillColor=none;align=left;verticalAlign=top;spacingLeft=4;spacingRight=4;overflow=hidden;rotatable=0;points=[[0,0.5],[1,0.5]];portConstraint=eastwest;whiteSpace=wrap;html=1;shadow=1;" parent="pVUZxIeJl8MHuYW2H4T0-8" vertex="1">
          <mxGeometry y="103" width="492" height="43" as="geometry" />
        </mxCell>
        <mxCell id="pVUZxIeJl8MHuYW2H4T0-22" value="&lt;b&gt;Hoverable&lt;/b&gt;" style="swimlane;fontStyle=0;childLayout=stackLayout;horizontal=1;startSize=26;fillColor=#dae8fc;horizontalStack=0;resizeParent=1;resizeParentMax=0;resizeLast=0;collapsible=1;marginBottom=0;whiteSpace=wrap;html=1;strokeColor=#6c8ebf;shadow=1;" parent="WIyWlLk6GJQsqaUBKTNV-1" vertex="1">
          <mxGeometry x="1292" y="410" width="300" height="69" as="geometry" />
        </mxCell>
        <mxCell id="pVUZxIeJl8MHuYW2H4T0-23" value="onDragEnter(event: DragEvent): void&lt;br&gt;onDragLeave(event: DragEvent): void" style="text;strokeColor=none;fillColor=none;align=left;verticalAlign=top;spacingLeft=4;spacingRight=4;overflow=hidden;rotatable=0;points=[[0,0.5],[1,0.5]];portConstraint=eastwest;whiteSpace=wrap;html=1;shadow=1;" parent="pVUZxIeJl8MHuYW2H4T0-22" vertex="1">
          <mxGeometry y="26" width="300" height="43" as="geometry" />
        </mxCell>
        <mxCell id="pVUZxIeJl8MHuYW2H4T0-24" value="" style="endArrow=block;endSize=10;endFill=0;shadow=1;strokeWidth=1;rounded=0;elbow=vertical;exitX=0.5;exitY=0;exitDx=0;exitDy=0;entryX=0.498;entryY=0.96;entryDx=0;entryDy=0;entryPerimeter=0;" parent="WIyWlLk6GJQsqaUBKTNV-1" source="9JNk9C_VZ7fs6iSy1HpL-33" target="pVUZxIeJl8MHuYW2H4T0-1" edge="1">
          <mxGeometry width="160" relative="1" as="geometry">
            <mxPoint x="1073" y="644" as="sourcePoint" />
            <mxPoint x="1072" y="314" as="targetPoint" />
          </mxGeometry>
        </mxCell>
        <mxCell id="pVUZxIeJl8MHuYW2H4T0-25" value="" style="endArrow=block;endSize=10;endFill=0;shadow=1;strokeWidth=1;rounded=0;elbow=vertical;entryX=0;entryY=0.5;entryDx=0;entryDy=0;exitX=0.5;exitY=0;exitDx=0;exitDy=0;" parent="WIyWlLk6GJQsqaUBKTNV-1" target="pVUZxIeJl8MHuYW2H4T0-23" edge="1" source="9JNk9C_VZ7fs6iSy1HpL-33">
          <mxGeometry width="160" relative="1" as="geometry">
            <mxPoint x="1060" y="557" as="sourcePoint" />
            <mxPoint x="1392" y="571" as="targetPoint" />
          </mxGeometry>
        </mxCell>
        <mxCell id="pVUZxIeJl8MHuYW2H4T0-26" value="&lt;b&gt;Droppable&lt;/b&gt;" style="swimlane;fontStyle=0;childLayout=stackLayout;horizontal=1;startSize=26;fillColor=#dae8fc;horizontalStack=0;resizeParent=1;resizeParentMax=0;resizeLast=0;collapsible=1;marginBottom=0;whiteSpace=wrap;html=1;strokeColor=#6c8ebf;shadow=1;" parent="WIyWlLk6GJQsqaUBKTNV-1" vertex="1">
          <mxGeometry x="601" y="934" width="300" height="69" as="geometry" />
        </mxCell>
        <mxCell id="pVUZxIeJl8MHuYW2H4T0-27" value="onDragOver(event: DragEvent): void&lt;br&gt;onDrop(event: DragEvent): void" style="text;strokeColor=none;fillColor=none;align=left;verticalAlign=top;spacingLeft=4;spacingRight=4;overflow=hidden;rotatable=0;points=[[0,0.5],[1,0.5]];portConstraint=eastwest;whiteSpace=wrap;html=1;shadow=1;" parent="pVUZxIeJl8MHuYW2H4T0-26" vertex="1">
          <mxGeometry y="26" width="300" height="43" as="geometry" />
        </mxCell>
        <mxCell id="pVUZxIeJl8MHuYW2H4T0-30" value="&lt;span style=&quot;font-weight: normal;&quot;&gt;drag and drop&lt;/span&gt;" style="text;align=center;fontStyle=1;verticalAlign=middle;spacingLeft=3;spacingRight=3;strokeColor=none;rotatable=0;points=[[0,0.5],[1,0.5]];portConstraint=eastwest;html=1;shadow=1;" parent="WIyWlLk6GJQsqaUBKTNV-1" vertex="1">
          <mxGeometry x="1101" y="309" width="80" height="26" as="geometry" />
        </mxCell>
        <mxCell id="pVUZxIeJl8MHuYW2H4T0-31" value="&lt;span style=&quot;font-weight: normal;&quot;&gt;drag and drop&lt;/span&gt;" style="text;align=center;fontStyle=1;verticalAlign=middle;spacingLeft=3;spacingRight=3;strokeColor=none;rotatable=0;points=[[0,0.5],[1,0.5]];portConstraint=eastwest;html=1;shadow=1;" parent="WIyWlLk6GJQsqaUBKTNV-1" vertex="1">
          <mxGeometry x="1514" y="384" width="80" height="26" as="geometry" />
        </mxCell>
        <mxCell id="pVUZxIeJl8MHuYW2H4T0-32" value="" style="endArrow=block;endSize=10;endFill=0;shadow=1;strokeWidth=1;rounded=0;elbow=vertical;exitX=0.491;exitY=1.044;exitDx=0;exitDy=0;entryX=0.5;entryY=0;entryDx=0;entryDy=0;exitPerimeter=0;" parent="WIyWlLk6GJQsqaUBKTNV-1" source="9JNk9C_VZ7fs6iSy1HpL-48" target="pVUZxIeJl8MHuYW2H4T0-26" edge="1">
          <mxGeometry width="160" relative="1" as="geometry">
            <mxPoint x="1056" y="530" as="sourcePoint" />
            <mxPoint x="1057" y="860" as="targetPoint" />
          </mxGeometry>
        </mxCell>
        <mxCell id="pVUZxIeJl8MHuYW2H4T0-28" value="&lt;span style=&quot;font-weight: normal;&quot;&gt;drag and drop&lt;/span&gt;" style="text;align=center;fontStyle=1;verticalAlign=middle;spacingLeft=3;spacingRight=3;strokeColor=none;rotatable=0;points=[[0,0.5],[1,0.5]];portConstraint=eastwest;html=1;shadow=1;" parent="WIyWlLk6GJQsqaUBKTNV-1" vertex="1">
          <mxGeometry x="591" y="908" width="109" height="26" as="geometry" />
        </mxCell>
        <mxCell id="tHrwXdwBzoUL8-mCVOlk-3" value="PageComponent는 SectionContainer를 주입 받아 사용한다(연관관계)&lt;div&gt;이때 SectionContainer 구현체의 관리는 Pagecomponent에서 한다&lt;/div&gt;" style="text;html=1;align=center;verticalAlign=middle;whiteSpace=wrap;rounded=0;" vertex="1" parent="WIyWlLk6GJQsqaUBKTNV-1">
          <mxGeometry x="904" y="838" width="129" height="103" as="geometry" />
        </mxCell>
      </root>
    </mxGraphModel>
  </diagram>
</mxfile>
